<?xml version="1.0" encoding="UTF-8"?>
<svg width="23px" height="23px" viewBox="0 0 23 23" version="1.1" xmlns="http://www.w3.org/2000/svg" xmlns:xlink="http://www.w3.org/1999/xlink">
    <title>stocks icon@3x</title>
    <g id="5.-Pages" stroke="none" stroke-width="1" fill="none" fill-rule="evenodd">
        <g id="5.3-Saving" transform="translate(-32.000000, -104.000000)" fill-rule="nonzero">
            <g id="Top-Profile-image" transform="translate(0.000000, 78.000000)">
                <g id="stocks" transform="translate(32.000000, 26.000000)">
                    <path d="M22.6034483,23 L0.396551724,23 C0.287103448,23 0.198275862,22.9111724 0.198275862,22.8017241 L0.198275862,6.54310345 C0.198275862,6.43365517 0.287103448,6.34482759 0.396551724,6.34482759 C0.506,6.34482759 0.594827586,6.43365517 0.594827586,6.54310345 L0.594827586,22.6034483 L22.6034483,22.6034483 C22.7128966,22.6034483 22.8017241,22.6922759 22.8017241,22.8017241 C22.8017241,22.9111724 22.7128966,23 22.6034483,23 Z" id="Path" fill="#263238"></path>
                    <g id="Group" transform="translate(2.379310, 10.706897)">
                        <path d="M4.36206897,12.0948276 L0.396551724,12.0948276 L0.396551724,0.594827586 C0.396551724,0.375931034 0.574206897,0.198275862 0.793103448,0.198275862 L3.96551724,0.198275862 C4.18441379,0.198275862 4.36206897,0.375931034 4.36206897,0.594827586 L4.36206897,12.0948276 Z" id="Path" fill="#FFD740"></path>
                        <path d="M4.36206897,12.2931034 L0.396551724,12.2931034 C0.287103448,12.2931034 0.198275862,12.2042759 0.198275862,12.0948276 L0.198275862,0.594827586 C0.198275862,0.26687931 0.465155172,0 0.793103448,0 L3.96551724,0 C4.29346552,0 4.56034483,0.26687931 4.56034483,0.594827586 L4.56034483,12.0948276 C4.56034483,12.2042759 4.47151724,12.2931034 4.36206897,12.2931034 Z M0.594827586,11.8965517 L4.1637931,11.8965517 L4.1637931,0.594827586 C4.1637931,0.485775862 4.07496552,0.396551724 3.96551724,0.396551724 L0.793103448,0.396551724 C0.683655172,0.396551724 0.594827586,0.485775862 0.594827586,0.594827586 L0.594827586,11.8965517 Z" id="Shape" fill="#263238"></path>
                    </g>
                    <g id="Group" transform="translate(9.120690, 14.275862)">
                        <path d="M4.1637931,8.52586207 L0.198275862,8.52586207 L0.198275862,0.594827586 C0.198275862,0.375931034 0.375931034,0.198275862 0.594827586,0.198275862 L3.76724138,0.198275862 C3.98613793,0.198275862 4.1637931,0.375931034 4.1637931,0.594827586 L4.1637931,8.52586207 Z" id="Path" fill="#40C4FF"></path>
                        <path d="M4.1637931,8.72413793 L0.198275862,8.72413793 C0.0888275862,8.72413793 0,8.63531034 0,8.52586207 L0,0.594827586 C0,0.26687931 0.26687931,0 0.594827586,0 L3.76724138,0 C4.09518966,0 4.36206897,0.26687931 4.36206897,0.594827586 L4.36206897,8.52586207 C4.36206897,8.63531034 4.27324138,8.72413793 4.1637931,8.72413793 Z M0.396551724,8.32758621 L3.96551724,8.32758621 L3.96551724,0.594827586 C3.96551724,0.485775862 3.87668966,0.396551724 3.76724138,0.396551724 L0.594827586,0.396551724 C0.48537931,0.396551724 0.396551724,0.485775862 0.396551724,0.594827586 L0.396551724,8.32758621 Z" id="Shape" fill="#263238"></path>
                    </g>
                    <g id="Group" transform="translate(15.465517, 7.534483)">
                        <path d="M4.36206897,15.2672414 L0.396551724,15.2672414 L0.396551724,0.793103448 C0.396551724,0.574206897 0.574206897,0.396551724 0.793103448,0.396551724 L3.96551724,0.396551724 C4.18441379,0.396551724 4.36206897,0.574206897 4.36206897,0.793103448 L4.36206897,15.2672414 Z" id="Path" fill="#FF5252"></path>
                        <path d="M4.36206897,15.4655172 L0.396551724,15.4655172 C0.287103448,15.4655172 0.198275862,15.3766897 0.198275862,15.2672414 L0.198275862,0.793103448 C0.198275862,0.465155172 0.465155172,0.198275862 0.793103448,0.198275862 L3.96551724,0.198275862 C4.29346552,0.198275862 4.56034483,0.465155172 4.56034483,0.793103448 L4.56034483,15.2672414 C4.56034483,15.3766897 4.47151724,15.4655172 4.36206897,15.4655172 Z M0.594827586,15.0689655 L4.1637931,15.0689655 L4.1637931,0.793103448 C4.1637931,0.684051724 4.07496552,0.594827586 3.96551724,0.594827586 L0.793103448,0.594827586 C0.683655172,0.594827586 0.594827586,0.684051724 0.594827586,0.793103448 L0.594827586,15.0689655 Z" id="Shape" fill="#263238"></path>
                    </g>
                    <path d="M7.15062069,1.18965517 L5.56441379,1.18965517 C5.45496552,1.18965517 5.36613793,1.10082759 5.36613793,0.99137931 C5.36613793,0.881931034 5.45496552,0.793103448 5.56441379,0.793103448 L7.15062069,0.793103448 C7.26006897,0.793103448 7.34889655,0.881931034 7.34889655,0.99137931 C7.34889655,1.10082759 7.26006897,1.18965517 7.15062069,1.18965517 Z" id="Path" fill="#263238"></path>
                    <path d="M6.35751724,1.98275862 C6.24806897,1.98275862 6.15924138,1.89393103 6.15924138,1.78448276 L6.15924138,0.198275862 C6.15924138,0.0888275862 6.24806897,0 6.35751724,0 C6.46696552,0 6.5557931,0.0888275862 6.5557931,0.198275862 L6.5557931,1.78448276 C6.5557931,1.89393103 6.46696552,1.98275862 6.35751724,1.98275862 Z" id="Path" fill="#263238"></path>
                    <path d="M4.37475862,3.76724138 L2.78855172,3.76724138 C2.67910345,3.76724138 2.59027586,3.67841379 2.59027586,3.56896552 C2.59027586,3.45951724 2.67910345,3.37068966 2.78855172,3.37068966 L4.37475862,3.37068966 C4.4842069,3.37068966 4.57303448,3.45951724 4.57303448,3.56896552 C4.57303448,3.67841379 4.4842069,3.76724138 4.37475862,3.76724138 Z" id="Path" fill="#263238"></path>
                    <path d="M3.58165517,4.56034483 C3.4722069,4.56034483 3.38337931,4.47151724 3.38337931,4.36206897 L3.38337931,2.77586207 C3.38337931,2.66641379 3.4722069,2.57758621 3.58165517,2.57758621 C3.69110345,2.57758621 3.77993103,2.66641379 3.77993103,2.77586207 L3.77993103,4.36206897 C3.77993103,4.47151724 3.69110345,4.56034483 3.58165517,4.56034483 Z" id="Path" fill="#263238"></path>
                    <path d="M11.3017241,9.12068966 C11.2743621,9.12068966 11.247,9.11513793 11.2212241,9.10363793 L7.74068966,7.55668966 L4.85181034,9.09768966 C4.82325862,9.11236207 4.79113793,9.12068966 4.75862069,9.12068966 L2.77586207,9.12068966 C2.66641379,9.12068966 2.57758621,9.03186207 2.57758621,8.92241379 C2.57758621,8.81296552 2.66641379,8.72413793 2.77586207,8.72413793 L4.70905172,8.72413793 L7.63956897,7.16132759 C7.6935,7.13277586 7.75774138,7.1307931 7.81325862,7.15498276 L11.2640517,8.68844828 L17.7115862,2.82741379 C17.7924828,2.75405172 17.9181897,2.7592069 17.9919483,2.84089655 C18.0657069,2.9217931 18.0593621,3.0475 17.9784655,3.12086207 L11.4353621,9.06913793 C11.3980862,9.10284483 11.3501034,9.12068966 11.3017241,9.12068966 Z" id="Path" fill="#263238"></path>
                    <g id="Group" transform="translate(9.913793, 7.534483)">
                        <circle id="Oval" fill="#FFFFFF" cx="1.38793103" cy="1.38793103" r="1"></circle>
                        <path d="M1.38793103,2.57758621 C0.732034483,2.57758621 0.198275862,2.04382759 0.198275862,1.38793103 C0.198275862,0.732034483 0.732034483,0.198275862 1.38793103,0.198275862 C2.04382759,0.198275862 2.57758621,0.732034483 2.57758621,1.38793103 C2.57758621,2.04382759 2.04382759,2.57758621 1.38793103,2.57758621 Z M1.38793103,0.594827586 C0.950534483,0.594827586 0.594827586,0.950534483 0.594827586,1.38793103 C0.594827586,1.82532759 0.950534483,2.18103448 1.38793103,2.18103448 C1.82532759,2.18103448 2.18103448,1.82532759 2.18103448,1.38793103 C2.18103448,0.950534483 1.82532759,0.594827586 1.38793103,0.594827586 Z" id="Shape" fill="#263238"></path>
                    </g>
                    <g id="Group" transform="translate(3.568966, 7.534483)">
                        <circle id="Oval" fill="#FFFFFF" cx="1.18965517" cy="1.38793103" r="1"></circle>
                        <path d="M1.18965517,2.57758621 C0.533758621,2.57758621 0,2.04382759 0,1.38793103 C0,0.732034483 0.533758621,0.198275862 1.18965517,0.198275862 C1.84555172,0.198275862 2.37931034,0.732034483 2.37931034,1.38793103 C2.37931034,2.04382759 1.84555172,2.57758621 1.18965517,2.57758621 Z M1.18965517,0.594827586 C0.752258621,0.594827586 0.396551724,0.950534483 0.396551724,1.38793103 C0.396551724,1.82532759 0.752258621,2.18103448 1.18965517,2.18103448 C1.62705172,2.18103448 1.98275862,1.82532759 1.98275862,1.38793103 C1.98275862,0.950534483 1.62705172,0.594827586 1.18965517,0.594827586 Z" id="Shape" fill="#263238"></path>
                    </g>
                    <g id="Group" transform="translate(16.655172, 1.586207)">
                        <circle id="Oval" fill="#FFFFFF" cx="1.18965517" cy="1.38793103" r="1"></circle>
                        <path d="M1.18965517,2.57758621 C0.533758621,2.57758621 0,2.04382759 0,1.38793103 C0,0.732034483 0.533758621,0.198275862 1.18965517,0.198275862 C1.84555172,0.198275862 2.37931034,0.732034483 2.37931034,1.38793103 C2.37931034,2.04382759 1.84555172,2.57758621 1.18965517,2.57758621 Z M1.18965517,0.594827586 C0.752258621,0.594827586 0.396551724,0.950534483 0.396551724,1.38793103 C0.396551724,1.82532759 0.752258621,2.18103448 1.18965517,2.18103448 C1.62705172,2.18103448 1.98275862,1.82532759 1.98275862,1.38793103 C1.98275862,0.950534483 1.62705172,0.594827586 1.18965517,0.594827586 Z" id="Shape" fill="#263238"></path>
                    </g>
                </g>
            </g>
        </g>
    </g>
</svg>