<svg width="37" height="12" viewBox="0 0 37 12" xmlns="http://www.w3.org/2000/svg">
    <g fill="none" fill-rule="evenodd">
        <path d="m34.44.268 2.366 11.291h-2.714l-.346-1.676h-3.759l-.616 1.676H26.29l4.408-10.45s.268-.84 1.366-.84h2.376zM32.392 3.34 30.84 7.566h2.428l-.875-4.227zM26.52 2.983l.423-2.425S25.64.066 24.283.066c-1.466 0-4.95.638-4.95 3.738 0 2.918 4.09 2.954 4.09 4.485 0 1.532-3.669 1.259-4.88.292l-.439 2.535s1.32.638 3.338.638c2.016 0 5.06-1.04 5.06-3.865 0-2.936-4.125-3.21-4.125-4.486 0-1.277 2.879-1.113 4.144-.42M16.283 11.56h-2.957L15.174.267h2.957L16.283 11.56M7.687 6.362l.334 1.672L10.84.268h3.182L9.318 11.56h-3.08L3.67 1.75a11.452 11.452 0 0 1 1.295.9c1.921 1.547 2.63 3.45 2.714 3.688l.008.025z" fill="#333"/>
        <path d="m7.687 6.362-.995-5.077S6.572.268 5.29.268H.631L.577.46s2.24.462 4.388 2.19c2.054 1.654 2.722 3.713 2.722 3.713" fill="#F9A533"/>
    </g>
</svg>
