<svg xmlns="http://www.w3.org/2000/svg" width="61" height="61" viewBox="0 0 61 61">
    <g fill="none" fill-rule="evenodd">
        <g fill-rule="nonzero">
            <g>
                <g transform="translate(-117 -223) translate(117 223) translate(5.155 3.437)">
                    <circle cx="26.204" cy="26.204" r="25.156" fill="#40C4FF"/>
                    <path fill="#263238" d="M26.204 51.884c-14.183 0-25.68-11.497-25.68-25.68S12.021.524 26.204.524s25.68 11.497 25.68 25.68c-.016 14.176-11.504 25.664-25.68 25.68zm0-50.312C12.6 1.572 1.572 12.6 1.572 26.204c0 13.604 11.028 24.632 24.632 24.632 13.604 0 24.632-11.028 24.632-24.632-.015-13.597-11.034-24.616-24.632-24.632z"/>
                </g>
                <g fill="#263238">
                    <path d="M51.36 1.933H1.048c-.29 0-.524-.288-.524-.644 0-.356.235-.645.524-.645H51.36c.29 0 .524.289.524.645 0 .356-.234.644-.524.644z" transform="translate(-117 -223) translate(117 223) translate(5.155 28.352)"/>
                </g>
                <g fill="#263238">
                    <path d="M13.317 51.884C6.256 51.884.512 40.365.512 26.204c0-14.16 5.744-25.68 12.805-25.68 7.06 0 12.805 11.52 12.805 25.68 0 14.161-5.744 25.68-12.805 25.68zm0-50.312c-6.496 0-11.78 11.05-11.78 24.632s5.284 24.632 11.78 24.632c6.495 0 11.78-11.05 11.78-24.632S19.812 1.572 13.317 1.572z" transform="translate(-117 -223) translate(117 223) translate(18.042 3.437)"/>
                </g>
                <g fill="#263238">
                    <path d="M19.331 14.084c-7.09-.007-13.843-3.104-18.574-8.52-.103-.117-.148-.277-.123-.433.026-.156.12-.292.254-.37C5.596 2.067 12.311.521 19.331.521c7.02 0 13.735 1.546 18.443 4.24.135.077.228.212.254.369.025.156-.02.316-.123.434-4.73 5.416-11.484 8.514-18.574 8.52zM1.952 5.357c4.515 4.904 10.802 7.684 17.379 7.684 6.577 0 12.864-2.78 17.379-7.684C32.184 2.941 25.9 1.565 19.33 1.565c-6.568 0-12.853 1.376-17.379 3.792z" transform="translate(-117 -223) translate(117 223) translate(11.169 42.099)"/>
                </g>
                <g fill="#263238">
                    <path d="M19.331 14.084c-7.02 0-13.735-1.545-18.443-4.239-.134-.077-.227-.213-.253-.369-.026-.156.02-.315.122-.433C5.483 3.621 12.239.523 19.331.523c7.092 0 13.848 3.098 18.574 8.52.103.118.147.277.122.433-.026.156-.119.292-.253.37-4.708 2.693-11.423 4.238-18.443 4.238zM1.952 9.248c4.526 2.417 10.81 3.793 17.379 3.793 6.568 0 12.853-1.376 17.379-3.793-4.515-4.904-10.802-7.683-17.379-7.683-6.577 0-12.864 2.78-17.379 7.683z" transform="translate(-117 -223) translate(117 223) translate(11.169 4.296)"/>
                </g>
                <g fill="#263238">
                    <path d="M1.289 51.884c-.356 0-.645-.234-.645-.524V1.048c0-.29.289-.524.645-.524.356 0 .644.235.644.524V51.36c0 .29-.288.524-.644.524z" transform="translate(-117 -223) translate(117 223) translate(30.07 3.437)"/>
                </g>
                <g fill="#263238">
                    <path d="M1.031 30.414c-.285 0-.516-.23-.516-.515C.534 13.679 13.678.534 29.9.515c.284 0 .515.231.515.516 0 .285-.23.515-.515.515C14.247 1.564 1.564 14.247 1.546 29.9c0 .284-.23.515-.515.515z" transform="translate(-117 -223) translate(117 223)"/>
                </g>
                <g fill="#263238">
                    <path d="M1.718 1.933H.86c-.237 0-.43-.288-.43-.644C.43.933.623.644.86.644h.86c.237 0 .429.289.429.645 0 .356-.192.644-.43.644z" transform="translate(-117 -223) translate(117 223) translate(30.93)"/>
                </g>
                <g fill="#263238">
                    <path d="M1.031 30.414c-.285 0-.516-.23-.516-.515 0-.285.231-.516.516-.516 15.651-.018 28.334-12.7 28.352-28.352 0-.285.23-.516.516-.516.284 0 .515.231.515.516-.018 16.22-13.163 29.365-29.383 29.383z" transform="translate(-117 -223) translate(117 223) translate(30.07 30.07)"/>
                </g>
                <g fill="#263238">
                    <path d="M1.718 1.933H.86c-.237 0-.43-.288-.43-.644C.43.933.623.644.86.644h.86c.237 0 .429.289.429.645 0 .356-.192.644-.43.644z" transform="translate(-117 -223) translate(117 223) translate(27.493 58.423)"/>
                </g>
                <g fill="#263238">
                    <path d="M5.728 1.933H1.146c-.317 0-.573-.288-.573-.644 0-.356.256-.645.573-.645h4.582c.316 0 .572.289.572.645 0 .356-.256.644-.572.644z" transform="translate(-117 -223) translate(117 223) translate(46.394 3.437)"/>
                </g>
                <g fill="#263238">
                    <path d="M1.289 6.3c-.356 0-.645-.256-.645-.572V1.146c0-.317.289-.573.645-.573.356 0 .644.256.644.573v4.582c0 .316-.288.572-.644.572z" transform="translate(-117 -223) translate(117 223) translate(48.972)"/>
                </g>
                <g fill="#263238">
                    <path d="M5.728 1H1.146C.829 1 .573.776.573.5s.256-.5.573-.5h4.582c.316 0 .572.224.572.5s-.256.5-.572.5z" transform="translate(-117 -223) translate(117 223) translate(54.127 10.31)"/>
                </g>
                <g fill="#263238">
                    <path d="M1.289 5.155c-.356 0-.645-.23-.645-.516V.515C.644.231.933 0 1.29 0c.356 0 .644.23.644.515V4.64c0 .285-.288.516-.644.516z" transform="translate(-117 -223) translate(117 223) translate(54.986 7.732)"/>
                </g>
            </g>
        </g>
    </g>
</svg>
