<svg xmlns="http://www.w3.org/2000/svg" width="47" height="47" viewBox="0 0 47 47">
    <g fill="none" fill-rule="evenodd" opacity=".07">
        <g>
            <g>
                <g>
                    <g>
                        <path d="M0 0L47 0 47 47 0 47z" transform="translate(-128 -750) translate(31 598) translate(0 147) translate(97 5)"/>
                        <path fill="#333" d="M31.603 25.94v3.232c-.004 1.341-1.09 2.427-2.43 2.431H17.827c-1.341-.004-2.427-1.09-2.431-2.43V17.827c.004-1.341 1.09-2.427 2.43-2.431h11.345c1.341.004 2.427 1.09 2.431 2.43v3.234c-.002.448-.362.811-.81.818-.217.003-.426-.083-.578-.237-.153-.155-.237-.364-.232-.581v-3.233c-.004-.446-.365-.807-.81-.81H17.827c-.446.003-.807.364-.81.81v11.344c.003.446.364.807.81.81h11.344c.446-.003.807-.364.81-.81V25.94c.003-.448.363-.811.811-.818.217-.003.426.083.578.237.153.155.237.364.232.581zM20.26 4.861c.005-.445.365-.805.81-.81.448 0 .81.363.81.81v2.431h3.242v-2.43c.005-.446.365-.806.81-.811.448 0 .81.363.81.81v2.431h3.242v-2.43c.005-.446.365-.806.81-.811.448 0 .81.363.81.81v2.431h5.673c1.341.003 2.428 1.09 2.43 2.431v5.673h2.432c.445.005.805.365.81.81 0 .447-.363.81-.81.81h-2.431v3.242h2.43c.446.005.806.365.811.81 0 .448-.363.81-.81.81h-2.431v3.242h2.43c.446.005.806.365.811.81 0 .448-.363.81-.81.81h-2.431v3.242h2.43c.446.005.806.365.811.81 0 .448-.363.81-.81.81h-2.431v5.673c-.003 1.341-1.09 2.428-2.431 2.43h-5.673v2.432c-.005.445-.365.805-.81.81-.447 0-.81-.363-.81-.81v-2.431H26.74v2.43c-.005.446-.365.806-.81.811-.448 0-.81-.363-.81-.81v-2.431h-3.242v2.43c-.005.446-.365.806-.81.811-.448 0-.81-.363-.81-.81v-2.431h-3.242v2.43c-.005.446-.365.806-.81.811-.448 0-.81-.363-.81-.81v-2.431H9.724c-1.341-.003-2.428-1.09-2.43-2.431v-5.673H4.861c-.445-.005-.805-.365-.81-.81 0-.447.363-.81.81-.81h2.431V26.74h-2.43c-.446-.005-.806-.365-.811-.81 0-.448.363-.81.81-.81h2.431v-3.242h-2.43c-.446-.005-.806-.365-.811-.81 0-.448.363-.81.81-.81h2.431v-3.242h-2.43c-.446-.005-.806-.365-.811-.81 0-.448.363-.81.81-.81h2.431V9.724c.003-1.341 1.09-2.428 2.431-2.43h5.673V4.861c.005-.445.365-.805.81-.81.447 0 .81.363.81.81v2.431h3.242v-2.43zM8.914 9.724v27.552c.003.446.364.807.81.81h27.552c.446-.003.807-.364.81-.81V9.724c-.003-.446-.364-.807-.81-.81H9.724c-.446.003-.807.364-.81.81z" transform="translate(-128 -750) translate(31 598) translate(0 147) translate(97 5)"/>
                    </g>
                </g>
            </g>
        </g>
    </g>
</svg>
