<?xml version="1.0" encoding="UTF-8"?>
<svg width="311px" height="195px" viewBox="0 0 311 195" version="1.1" xmlns="http://www.w3.org/2000/svg" xmlns:xlink="http://www.w3.org/1999/xlink">
    <title>1st visa card@3x</title>
    <defs>
        <linearGradient x1="0%" y1="31.2514658%" x2="100%" y2="68.7485342%" id="linearGradient-1">
            <stop stop-color="#40C4FF" offset="0%"></stop>
            <stop stop-color="#000000" offset="82.2251967%"></stop>
        </linearGradient>
        <rect id="path-2" x="0.0723460026" y="0.661220044" width="309.490476" height="189.516029" rx="8"></rect>
        <filter x="-9.1%" y="-9.0%" width="118.1%" height="118.1%" filterUnits="objectBoundingBox" id="filter-4">
            <feGaussianBlur stdDeviation="8" in="SourceGraphic"></feGaussianBlur>
        </filter>
        <filter x="-99.5%" y="-16.4%" width="299.0%" height="132.7%" filterUnits="objectBoundingBox" id="filter-5">
            <feGaussianBlur stdDeviation="10.0892857" in="SourceGraphic"></feGaussianBlur>
        </filter>
        <filter x="-28.9%" y="-28.9%" width="157.8%" height="157.7%" filterUnits="objectBoundingBox" id="filter-6">
            <feGaussianBlur stdDeviation="4" in="SourceGraphic"></feGaussianBlur>
        </filter>
    </defs>
    <g id="2.-Home" stroke="none" stroke-width="1" fill="none" fill-rule="evenodd">
        <g id="2.0-Home" transform="translate(-32.000000, -1379.000000)">
            <g id="MY-CARDS-SECTION" transform="translate(32.000000, 1353.000000)">
                <g id="1st-visa-card" transform="translate(0.000000, 26.000000)">
                    <g id="Background-Box" transform="translate(0.927654, 0.338780)">
                        <mask id="mask-3" fill="white">
                            <use xlink:href="#path-2"></use>
                        </mask>
                        <use id="Mask" fill="url(#linearGradient-1)" xlink:href="#path-2"></use>
                        <g id="Shape" mask="url(#mask-3)">
                            <g transform="translate(-34.000000, -132.000000)">
                                <path d="M343.562822,200.88699 C381.198096,200.88699 411.707514,170.341273 411.707514,132.66122 C411.707514,94.9811676 381.198096,64.4354497 343.562822,64.4354497 C305.927548,64.4354497 275.41813,94.9811676 275.41813,132.66122 C275.41813,170.341273 305.927548,200.88699 343.562822,200.88699 Z M343.562822,265.32244 C270.383122,265.32244 211.059254,205.927989 211.059254,132.66122 C211.059254,59.3944513 270.383122,0 343.562822,0 C416.742522,0 476.06639,59.3944513 476.06639,132.66122 C476.06639,205.927989 416.742522,265.32244 343.562822,265.32244 Z" id="Oval" fill="#FF5252" fill-rule="nonzero" opacity="0.600000024" style="mix-blend-mode: overlay;" filter="url(#filter-4)"></path>
                                <polygon id="Rectangle" fill="#FFFFFF" fill-rule="nonzero" opacity="0.800000012" style="mix-blend-mode: soft-light;" filter="url(#filter-5)" transform="translate(76.638234, 287.566000) rotate(-45.000000) translate(-76.638234, -287.566000) " points="61.5409821 195.030859 91.8455293 195.012841 91.7354861 380.101141 61.4309389 380.119158"></polygon>
                                <path d="M82.3690377,142.043089 L101.176763,142.043089 L101.176763,123.212986 L82.3690377,123.212986 L82.3690377,142.043089 Z M71.0115891,111.842025 L112.534212,111.842025 L112.534212,153.41405 L71.0115891,153.41405 L71.0115891,111.842025 Z" id="Rectangle" fill="#FFFFFF" fill-rule="evenodd" opacity="0.4" style="mix-blend-mode: overlay;" filter="url(#filter-6)" transform="translate(91.772900, 132.628038) rotate(-330.000000) translate(-91.772900, -132.628038) "></path>
                            </g>
                        </g>
                    </g>
                    <g id="logo-visa" transform="translate(31.286530, 23.741923)">
                        <path d="M70.6664237,0.558744662 L75.5966782,24.0819949 L69.9417114,24.0819949 L69.2200147,20.5885913 L61.3899061,20.5885913 L60.1063311,24.0819949 L53.6874514,24.0819949 L62.8714953,2.31094393 L62.8714953,2.31094393 L62.8798393,2.28709178 C62.956664,2.07759516 63.5870572,0.558744662 65.7160662,0.558744662 L65.7160662,0.558744662 L70.6664237,0.558744662 Z M66.4005725,6.95682084 L63.1649987,15.7617971 L68.221902,15.7617971 L66.4005725,6.95682084 Z" id="a" fill="#FFFFFF"></path>
                        <path d="M54.1679125,6.21515977 L55.0474176,1.16346831 C55.0474176,1.16346831 52.3345212,0.137936965 49.508043,0.137936965 C46.4513857,0.137936965 39.1932067,1.46632991 39.1932067,7.92537822 C39.1932067,14.0036006 47.7128473,14.0795659 47.7128473,17.2691083 C47.7128473,20.4606498 40.0717067,19.8909102 37.5487834,17.8778301 L36.6340981,23.158417 C36.6340981,23.158417 39.3831798,24.4878094 43.5867118,24.4878094 C47.7882335,24.4878094 54.130722,22.3227988 54.130722,16.4344897 C54.130722,10.3182847 45.5346901,9.74754552 45.5346901,7.08876055 C45.5346901,4.42897603 51.5334177,4.77081981 54.1679125,6.21515977" id="s" fill="#FFFFFF"></path>
                        <polyline id="i" fill="#FFFFFF" points="32.8386565 24.0819949 26.6801102 24.0819949 30.5288247 0.558744662 36.6893813 0.558744662 32.8386565 24.0819949"></polyline>
                        <path d="M28.1275244,0.558744662 L18.3283295,24.0819949 L11.91146,24.0819949 L6.56205845,3.64533414 C4.61311921,2.48148277 2.82354684,1.77734371 1.62749906,1.38336119 C3.36471987,1.95423121 6.35260338,3.17974436 9.25987764,5.51947768 C13.2870947,8.76129034 14.7580481,12.753044 14.9171665,13.2114448 L14.9303138,13.2500321 L14.9303138,13.2500321 L14.9319319,13.2539432 L15.6274948,16.7383508 L21.4985685,0.558744662 L28.1275244,0.558744662 Z" id="v" fill="#FFFFFF"></path>
                        <path d="M14.9319319,13.2549427 L12.8593152,2.67677675 C12.8593152,2.67677675 12.6100383,0.558744662 9.93835303,0.558744662 L0.231631769,0.558744662 L0.118049963,0.956562865 C0.119055111,0.956562865 4.7849555,1.91812345 9.25987764,5.51947768 C13.5387958,8.96390363 14.9319319,13.2549427 14.9319319,13.2549427" id="shape" fill="#F9A533"></path>
                    </g>
                    <g id="Card-number" transform="translate(31.286530, 68.213695)" fill="#FFFFFF">
                        <text id="8156-9624-0018-1734" font-family="Roboto-Regular, Roboto Condensed" font-size="17" font-weight="normal" line-spacing="24" letter-spacing="2">
                            <tspan x="0" y="36.3346397">8156  9624  0018  1734</tspan>
                        </text>
                        <text id="CARD-NUMBER" opacity="0.300000012" font-family="Roboto-Medium, Roboto Condensed" font-size="11" font-weight="400" line-spacing="20" letter-spacing="1">
                            <tspan x="0" y="12.4878766">CARD NUMBER</tspan>
                        </text>
                    </g>
                    <g id="Expire-date" transform="translate(31.286530, 125.068504)" fill="#FFFFFF">
                        <text id="08/20" font-family="Roboto-Regular, Roboto Condensed" font-size="17" font-weight="normal" line-spacing="24" letter-spacing="2">
                            <tspan x="0" y="36.3346397">08/2</tspan>
                            <tspan x="43.7763672" y="36.3346397">0</tspan>
                        </text>
                        <text id="EXPIRE-DATE" opacity="0.300000012" font-family="Roboto-Medium, Roboto Condensed" font-size="11" font-weight="400" line-spacing="20" letter-spacing="1">
                            <tspan x="0" y="12.4878766">EXPIRE DATE</tspan>
                        </text>
                    </g>
                    <g id="cvv" transform="translate(167.575914, 125.068504)" fill="#FFFFFF">
                        <text id="031" font-family="Roboto-Regular, Roboto Condensed" font-size="17" font-weight="normal" line-spacing="24" letter-spacing="2">
                            <tspan x="0" y="36.3346397">03</tspan>
                            <tspan x="23.1499023" y="36.3346397">1</tspan>
                        </text>
                        <text id="CVV" opacity="0.300000012" font-family="Roboto-Medium, Roboto Condensed" font-size="11" font-weight="400" line-spacing="20" letter-spacing="1">
                            <tspan x="0" y="12.4878766">CVV</tspan>
                        </text>
                    </g>
                </g>
            </g>
        </g>
    </g>
</svg>