<svg xmlns="http://www.w3.org/2000/svg" width="36" height="36" viewBox="0 0 36 36">
    <g fill="none" fill-rule="evenodd" opacity=".07">
        <g fill="#333" fill-rule="nonzero">
            <g>
                <g>
                    <g>
                        <path d="M2.077 9.36c-.382 0-.692.322-.692.72v2.88c0 .398.31.72.692.72h31.846c.382 0 .692-.322.692-.72v-2.88c0-.398-.31-.72-.692-.72H2.077zm15.23 5.76H4.848v9.36h12.46v-9.36zm1.385 0v9.36h12.462v-9.36H18.692zm-1.384 19.44v-8.64H4.846v7.92c0 .398.31.72.692.72h11.77zm1.384 0h11.77c.382 0 .692-.322.692-.72v-7.92H18.692v8.64zm13.846-19.44v18.72c0 1.193-.93 2.16-2.076 2.16H5.538c-1.147 0-2.076-.967-2.076-2.16V15.12H2.077C.93 15.12 0 14.153 0 12.96v-2.88c0-1.193.93-2.16 2.077-2.16h31.846c1.147 0 2.077.967 2.077 2.16v2.88c0 1.193-.93 2.16-2.077 2.16h-1.385zM20.582 3.107c-.185.173-.446.228-.682.146-.236-.083-.412-.291-.459-.546-.047-.254.04-.515.23-.684L21.306.534C21.685.19 22.171 0 22.674 0h6.057c1.72 0 3.115 1.45 3.115 3.24 0 1.79-1.395 3.24-3.115 3.24h-5.193c-.382 0-.692-.322-.692-.72 0-.398.31-.72.692-.72h5.193c.956 0 1.73-.806 1.73-1.8s-.774-1.8-1.73-1.8h-6.057c-.168 0-.33.063-.456.178l-1.636 1.489zM13.154 5.04c.382 0 .692.322.692.72 0 .398-.31.72-.692.72H7.962c-1.721 0-3.116-1.45-3.116-3.24C4.846 1.45 6.241 0 7.962 0h4.672c.503 0 .989.19 1.367.534l5.148 4.684c.186.17.27.43.223.682-.048.252-.222.459-.456.542-.235.083-.494.03-.68-.14L13.09 1.618c-.126-.115-.288-.178-.455-.178H7.962c-.956 0-1.731.806-1.731 1.8s.775 1.8 1.73 1.8h5.193z" transform="translate(-294 -608) translate(31 598) translate(160) translate(103 10)"/>
                    </g>
                </g>
            </g>
        </g>
    </g>
</svg>
