<?xml version="1.0" encoding="UTF-8"?>
<svg width="47px" height="25px" viewBox="0 0 47 25" version="1.1" xmlns="http://www.w3.org/2000/svg" xmlns:xlink="http://www.w3.org/1999/xlink">
    <title>logo@3x</title>
    <defs>
        <filter id="filter-1">
            <feColorMatrix in="SourceGraphic" type="matrix" values="0 0 0 0 1.000000 0 0 0 0 1.000000 0 0 0 0 1.000000 0 0 0 1.000000 0"></feColorMatrix>
        </filter>
        <filter id="filter-2">
            <feColorMatrix in="SourceGraphic" type="matrix" values="0 0 0 0 1.000000 0 0 0 0 1.000000 0 0 0 0 1.000000 0 0 0 1.000000 0"></feColorMatrix>
        </filter>
        <filter id="filter-3">
            <feColorMatrix in="SourceGraphic" type="matrix" values="0 0 0 0 1.000000 0 0 0 0 1.000000 0 0 0 0 1.000000 0 0 0 1.000000 0"></feColorMatrix>
        </filter>
        <filter id="filter-4">
            <feColorMatrix in="SourceGraphic" type="matrix" values="0 0 0 0 1.000000 0 0 0 0 1.000000 0 0 0 0 1.000000 0 0 0 1.000000 0"></feColorMatrix>
        </filter>
        <filter id="filter-5">
            <feColorMatrix in="SourceGraphic" type="matrix" values="0 0 0 0 1.000000 0 0 0 0 1.000000 0 0 0 0 1.000000 0 0 0 1.000000 0"></feColorMatrix>
        </filter>
        <filter id="filter-6">
            <feColorMatrix in="SourceGraphic" type="matrix" values="0 0 0 0 1.000000 0 0 0 0 1.000000 0 0 0 0 1.000000 0 0 0 1.000000 0"></feColorMatrix>
        </filter>
        <filter id="filter-7">
            <feColorMatrix in="SourceGraphic" type="matrix" values="0 0 0 0 1.000000 0 0 0 0 1.000000 0 0 0 0 1.000000 0 0 0 1.000000 0"></feColorMatrix>
        </filter>
        <filter id="filter-8">
            <feColorMatrix in="SourceGraphic" type="matrix" values="0 0 0 0 1.000000 0 0 0 0 1.000000 0 0 0 0 1.000000 0 0 0 1.000000 0"></feColorMatrix>
        </filter>
        <filter id="filter-9">
            <feColorMatrix in="SourceGraphic" type="matrix" values="0 0 0 0 1.000000 0 0 0 0 1.000000 0 0 0 0 1.000000 0 0 0 1.000000 0"></feColorMatrix>
        </filter>
        <filter id="filter-10">
            <feColorMatrix in="SourceGraphic" type="matrix" values="0 0 0 0 1.000000 0 0 0 0 1.000000 0 0 0 0 1.000000 0 0 0 1.000000 0"></feColorMatrix>
        </filter>
        <filter id="filter-11">
            <feColorMatrix in="SourceGraphic" type="matrix" values="0 0 0 0 1.000000 0 0 0 0 1.000000 0 0 0 0 1.000000 0 0 0 1.000000 0"></feColorMatrix>
        </filter>
        <filter id="filter-12">
            <feColorMatrix in="SourceGraphic" type="matrix" values="0 0 0 0 1.000000 0 0 0 0 1.000000 0 0 0 0 1.000000 0 0 0 1.000000 0"></feColorMatrix>
        </filter>
        <filter id="filter-13">
            <feColorMatrix in="SourceGraphic" type="matrix" values="0 0 0 0 1.000000 0 0 0 0 1.000000 0 0 0 0 1.000000 0 0 0 1.000000 0"></feColorMatrix>
        </filter>
    </defs>
    <g id="2.-Home" stroke="none" stroke-width="1" fill="none" fill-rule="evenodd">
        <g id="2.0-Home" transform="translate(-161.000000, -46.000000)">
            <g id="Header" transform="translate(0.000000, -0.000000)">
                <g id="logo" transform="translate(161.000000, 46.000045)">
                    <g id="worldwide-coverage">
                        <g id="Group_7336" transform="translate(1.690141, 1.126761)" fill-rule="nonzero">
                            <circle id="Ellipse_971" fill="#40C4FF" cx="8.5915493" cy="8.5915493" r="8.24788732"></circle>
                            <path d="M8.5915493,17.0112676 C3.94146728,17.0112676 0.171830986,13.2416313 0.171830986,8.5915493 C0.171830986,3.94146728 3.94146728,0.171830986 8.5915493,0.171830986 C13.2416313,0.171830986 17.0112676,3.94146728 17.0112676,8.5915493 C17.0059648,13.2394331 13.2394331,17.0059648 8.5915493,17.0112676 Z M8.5915493,0.515492958 C4.13126654,0.515492958 0.515492958,4.13126654 0.515492958,8.5915493 C0.515492958,13.0518321 4.13126654,16.6676056 8.5915493,16.6676056 C13.0518321,16.6676056 16.6676056,13.0518321 16.6676056,8.5915493 C16.6624923,4.13338627 13.0497123,0.520606295 8.5915493,0.515492958 Z" id="Path_10058" fill="#FFFFFF"></path>
                        </g>
                        <g filter="url(#filter-1)" id="Group_7337">
                            <g transform="translate(1.690141, 9.295775)">
                                <path d="M16.8394366,0.75 L0.343661972,0.75 C0.248762339,0.75 0.171830986,0.638071187 0.171830986,0.5 C0.171830986,0.361928813 0.248762339,0.25 0.343661972,0.25 L16.8394366,0.25 C16.9343363,0.25 17.0112676,0.361928813 17.0112676,0.5 C17.0112676,0.638071187 16.9343363,0.75 16.8394366,0.75 Z" id="Path_10059" fill="#263238" fill-rule="nonzero"></path>
                            </g>
                        </g>
                        <g filter="url(#filter-2)" id="Group_7338">
                            <g transform="translate(5.915493, 1.126761)">
                                <path d="M4.36619718,17.0112676 C2.05110509,17.0112676 0.167930661,13.2344225 0.167930661,8.5915493 C0.167930661,3.94867606 2.05110509,0.171830986 4.36619718,0.171830986 C6.68128927,0.171830986 8.56446371,3.94867606 8.56446371,8.5915493 C8.56446371,13.2344225 6.68128927,17.0112676 4.36619718,17.0112676 Z M4.36619718,0.515492958 C2.23650054,0.515492958 0.503791983,4.13837746 0.503791983,8.5915493 C0.503791983,13.0447211 2.23650054,16.6676056 4.36619718,16.6676056 C6.49589382,16.6676056 8.22860238,13.0447211 8.22860238,8.5915493 C8.22860238,4.13837746 6.49589382,0.515492958 4.36619718,0.515492958 Z" id="Path_10060" fill="#263238" fill-rule="nonzero"></path>
                            </g>
                        </g>
                        <g filter="url(#filter-3)" id="Group_7339">
                            <g transform="translate(3.943662, 13.521127)">
                                <path d="M6.33802817,4.61770624 C4.01337432,4.61556271 1.79924745,3.60001994 0.24818384,1.82450704 C0.214409276,1.78579598 0.199621536,1.73344398 0.207991292,1.68221617 C0.216361048,1.63098836 0.24698118,1.58643685 0.291215715,1.56112676 C1.83469236,0.677605634 4.0363232,0.171026157 6.33802817,0.171026157 C8.63973314,0.171026157 10.841364,0.677605634 12.3848406,1.56078471 C12.4290752,1.5860948 12.4596953,1.63064631 12.468065,1.68187412 C12.4764348,1.73310193 12.4616471,1.78545393 12.4278725,1.82416499 C10.8769455,3.59991208 8.66276105,4.61560562 6.33802817,4.61770624 Z M0.640140845,1.75643863 C2.12046603,3.36433998 4.18158929,4.27561241 6.33802817,4.27561241 C8.49446705,4.27561241 10.5555903,3.36433998 12.0359155,1.75643863 C10.5521497,0.964245473 8.49162342,0.513078471 6.33802817,0.513078471 C4.18443291,0.513078471 2.1239066,0.964245473 0.640140845,1.75643863 Z" id="Path_10061" fill="#263238" fill-rule="nonzero"></path>
                            </g>
                        </g>
                        <g filter="url(#filter-4)" id="Group_7340">
                            <g transform="translate(3.943662, 1.126761)">
                                <path d="M6.33802817,4.61770624 C4.0363232,4.61770624 1.83469236,4.11112676 0.291215715,3.22794769 C0.247095365,3.20262189 0.216560939,3.15814065 0.20819585,3.1070079 C0.199830762,3.05587516 0.21453821,3.00361183 0.24818384,2.96490946 C1.79783861,1.18736211 4.01283434,0.171255375 6.33802817,0.171255375 C8.663222,0.171255375 10.8782177,1.18736211 12.4278725,2.96490946 C12.4615181,3.00361183 12.4762256,3.05587516 12.4678605,3.1070079 C12.4594954,3.15814065 12.428961,3.20262189 12.3848406,3.22794769 C10.841364,4.11112676 8.63973314,4.61770624 6.33802817,4.61770624 Z M0.640140845,3.03229376 C2.1239066,3.82448692 4.18443291,4.27565392 6.33802817,4.27565392 C8.49162342,4.27565392 10.5521497,3.82448692 12.0359155,3.03229376 C10.5555903,1.42439242 8.49446705,0.513119984 6.33802817,0.513119984 C4.18158929,0.513119984 2.12046603,1.42439242 0.640140845,3.03229376 L0.640140845,3.03229376 Z" id="Path_10062" fill="#263238" fill-rule="nonzero"></path>
                            </g>
                        </g>
                        <g filter="url(#filter-5)" id="Group_7341">
                            <g transform="translate(9.859155, 1.126761)">
                                <path d="M0.5,17.0112676 C0.361928813,17.0112676 0.25,16.9343363 0.25,16.8394366 L0.25,0.343661972 C0.25,0.248762339 0.361928813,0.171830986 0.5,0.171830986 C0.638071187,0.171830986 0.75,0.248762339 0.75,0.343661972 L0.75,16.8394366 C0.75,16.9343363 0.638071187,17.0112676 0.5,17.0112676 Z" id="Path_10063" fill="#263238" fill-rule="nonzero"></path>
                            </g>
                        </g>
                        <g filter="url(#filter-6)" id="Group_7342">
                            <g>
                                <path d="M0.338028169,9.97183099 C0.244684268,9.97183099 0.169014085,9.8961608 0.169014085,9.8028169 C0.174975285,4.48468569 4.48468569,0.174975285 9.8028169,0.169014085 C9.8961608,0.169014085 9.97183099,0.244684268 9.97183099,0.338028169 C9.97183099,0.43137207 9.8961608,0.507042254 9.8028169,0.507042254 C4.67129626,0.512817118 0.512817118,4.67129626 0.507042254,9.8028169 C0.507042254,9.8961608 0.43137207,9.97183099 0.338028169,9.97183099 Z" id="Path_10064" fill="#263238" fill-rule="nonzero"></path>
                            </g>
                        </g>
                        <g filter="url(#filter-7)" id="Group_7343">
                            <g transform="translate(10.140845, 0.000000)">
                                <path d="M0.666666667,0.75 L0.333333333,0.75 C0.241285875,0.75 0.166666667,0.638071187 0.166666667,0.5 C0.166666667,0.361928813 0.241285875,0.25 0.333333333,0.25 L0.666666667,0.25 C0.758714125,0.25 0.833333333,0.361928813 0.833333333,0.5 C0.833333333,0.638071187 0.758714125,0.75 0.666666667,0.75 Z" id="Path_10065" fill="#263238" fill-rule="nonzero"></path>
                            </g>
                        </g>
                        <g filter="url(#filter-8)" id="Group_7344">
                            <g transform="translate(9.859155, 9.859155)">
                                <path d="M0.338028169,9.97183099 C0.244684268,9.97183099 0.169014085,9.8961608 0.169014085,9.8028169 C0.169014085,9.709473 0.244684268,9.63380282 0.338028169,9.63380282 C5.46954881,9.62802795 9.62802795,5.46954881 9.63380282,0.338028169 C9.63380282,0.244684268 9.709473,0.169014085 9.8028169,0.169014085 C9.8961608,0.169014085 9.97183099,0.244684268 9.97183099,0.338028169 C9.96586979,5.65615938 5.65615938,9.96586979 0.338028169,9.97183099 L0.338028169,9.97183099 Z" id="Path_10066" fill="#263238" fill-rule="nonzero"></path>
                            </g>
                        </g>
                        <g filter="url(#filter-9)" id="Group_7345">
                            <g transform="translate(9.014085, 19.154930)">
                                <path d="M0.666666667,0.75 L0.333333333,0.75 C0.241285875,0.75 0.166666667,0.638071187 0.166666667,0.5 C0.166666667,0.361928813 0.241285875,0.25 0.333333333,0.25 L0.666666667,0.25 C0.758714125,0.25 0.833333333,0.361928813 0.833333333,0.5 C0.833333333,0.638071187 0.758714125,0.75 0.666666667,0.75 Z" id="Path_10067" fill="#263238" fill-rule="nonzero"></path>
                            </g>
                        </g>
                        <g filter="url(#filter-10)" id="Group_7346">
                            <g transform="translate(15.211268, 1.126761)">
                                <path d="M1.87793427,0.75 L0.375586854,0.75 C0.271871408,0.75 0.187793427,0.638071187 0.187793427,0.5 C0.187793427,0.361928813 0.271871408,0.25 0.375586854,0.25 L1.87793427,0.25 C1.98164972,0.25 2.0657277,0.361928813 2.0657277,0.5 C2.0657277,0.638071187 1.98164972,0.75 1.87793427,0.75 Z" id="Path_10068" fill="#263238" fill-rule="nonzero"></path>
                            </g>
                        </g>
                        <g filter="url(#filter-11)" id="Group_7347">
                            <g transform="translate(16.056338, 0.000000)">
                                <path d="M0.5,2.0657277 C0.361928813,2.0657277 0.25,1.98164972 0.25,1.87793427 L0.25,0.375586854 C0.25,0.271871408 0.361928813,0.187793427 0.5,0.187793427 C0.638071187,0.187793427 0.75,0.271871408 0.75,0.375586854 L0.75,1.87793427 C0.75,1.98164972 0.638071187,2.0657277 0.5,2.0657277 Z" id="Path_10069" fill="#263238" fill-rule="nonzero"></path>
                            </g>
                        </g>
                        <g filter="url(#filter-12)" id="Group_7348">
                            <g transform="translate(17.746479, 3.380282)">
                                <path d="M1.87793427,1 L0.375586854,1 C0.271871408,1 0.187793427,0.776142375 0.187793427,0.5 C0.187793427,0.223857625 0.271871408,0 0.375586854,0 L1.87793427,0 C1.98164972,0 2.0657277,0.223857625 2.0657277,0.5 C2.0657277,0.776142375 1.98164972,1 1.87793427,1 Z" id="Path_10070" fill="#263238" fill-rule="nonzero"></path>
                            </g>
                        </g>
                        <g filter="url(#filter-13)" id="Group_7349">
                            <g transform="translate(18.028169, 2.535211)">
                                <path d="M0.5,1.69014085 C0.361928813,1.69014085 0.25,1.61447066 0.25,1.52112676 L0.25,0.169014085 C0.25,0.0756701831 0.361928813,0 0.5,0 C0.638071187,0 0.75,0.0756701831 0.75,0.169014085 L0.75,1.52112676 C0.75,1.61447066 0.638071187,1.69014085 0.5,1.69014085 Z" id="Path_10071" fill="#263238" fill-rule="nonzero"></path>
                            </g>
                        </g>
                    </g>
                    <text id=" IT.BAnk" stroke="#000000" stroke-width="0.8" font-family="Swiss721BT-BlackCondensedItalic, Swis721 BlkCn BT" font-size="13" font-style="italic" font-weight="normal" line-spacing="20">
                        <tspan x="12" y="16.9999551" fill="#FFFFFF">Fin</tspan>
                        <tspan x="28.8720703" y="16.9999551" fill="#40C4FF">Hit</tspan>
                    </text>
                </g>
            </g>
        </g>
    </g>
</svg>