<svg xmlns="http://www.w3.org/2000/svg" width="44" height="53" viewBox="0 0 44 53">
    <g fill="none" fill-rule="evenodd" opacity=".07">
        <g fill="#1A171B" fill-rule="nonzero">
            <g>
                <g>
                    <path d="M20.462 28.698c0-.435-.35-.787-.781-.788H6.502c-2.3-.002-4.164-1.88-4.167-4.2V6.203c.003-2.318 1.867-4.196 4.167-4.199h17.37c2.3.003 4.164 1.881 4.167 4.2.015.422.36.757.78.757.42 0 .766-.335.781-.758C29.597 3.016 27.034.434 23.873.43H6.503C3.34.434.777 3.016.774 6.203V23.71c.003 3.187 2.565 5.77 5.727 5.774h13.179c.207 0 .406-.082.553-.23.146-.147.228-.347.228-.556z" transform="translate(-127 -607) translate(31 598) translate(96 9)"/>
                    <path d="M43.884 27.273c-.179-1.966-1.82-3.469-3.779-3.46-.333 0-.666.045-.988.132-.637-1.317-1.961-2.156-3.416-2.163-.695 0-1.376.193-1.97.558-1.15-.988-2.764-1.22-4.143-.594V11.58c-.248-1.753-1.738-3.056-3.495-3.056-1.757 0-3.247 1.303-3.495 3.056v21.593c-1.623-.341-3.285-.443-4.937-.303-3.79.343-6.398 2.195-6.494 4.612-.131 1.045.028 2.106.459 3.066.17.283.499.427.82.36 1.66-.338 4.652-.762 5.618-.446 2.172.91 4.17 2.198 5.902 3.804 1.856 1.52 3.32 2.72 4.644 2.72h13.213c1.15-.001 2.08-.94 2.083-2.098V27.538c-.001-.088-.009-.177-.022-.265zm-1.543 17.615c0 .14-.055.273-.153.371-.098.098-.23.153-.369.153H28.606c-.769 0-2.238-1.202-3.66-2.366-1.874-1.736-4.043-3.118-6.403-4.08-.506-.136-1.03-.196-1.554-.18-1.398.039-2.792.19-4.167.452-.096-.558-.128-1.125-.095-1.69.06-1.54 2.193-2.848 5.074-3.108 1.803-.154 3.62.012 5.366.492.234.068.487.02.682-.128.195-.15.31-.381.31-.628V11.58c0-.805.89-1.485 1.943-1.485.933-.107 1.784.549 1.925 1.485v11.811c0 .34.215.64.534.747.32.107.67-.004.872-.276.42-.571 1.085-.908 1.791-.906.706.001 1.37.34 1.789.912.133.18.335.296.557.316.222.02.442-.055.605-.207.413-.394.96-.614 1.527-.614 1.053.005 1.962.745 2.186 1.782.052.243.215.447.44.551.224.104.484.094.7-.026.664-.369 1.468-.373 2.136-.013.668.361 1.109 1.039 1.172 1.8l.006.081v17.35h-.001zM43.121 48.018c-.207 0-.406.083-.553.23-.146.148-.228.349-.228.557v1.264c0 .391-.316.709-.704.71H28.632c-.388-.002-.703-.319-.704-.71v-1.264c.01-.288-.136-.559-.382-.706-.245-.147-.552-.147-.797 0-.246.147-.393.418-.382.706v1.264c0 1.26 1.014 2.28 2.264 2.282H41.64c1.25-.001 2.263-1.022 2.264-2.282v-1.264c.002-.209-.08-.41-.228-.558-.147-.148-.346-.23-.554-.229z" transform="translate(-127 -607) translate(31 598) translate(96 9)"/>
                    <path d="M15.181 24.316c.431 0 .78-.353.781-.787V22.4c2.054-.268 3.613-1.995 3.683-4.081 0-2.007-1.173-4.15-4.463-4.15-2.389 0-2.89-1.4-2.89-2.574.1-1.512 1.39-2.66 2.89-2.574 1.154-.031 2.217.628 2.71 1.68.175.387.624.564 1.013.399.39-.165.578-.611.427-1.008-.606-1.387-1.88-2.36-3.369-2.575V6.382c.011-.288-.135-.56-.381-.707-.246-.147-.552-.147-.798 0-.246.148-.393.419-.382.707v1.13c-2.049.272-3.601 1.997-3.67 4.079 0 2.005 1.17 4.148 4.45 4.148 2.399 0 2.903 1.4 2.903 2.575-.1 1.512-1.388 2.66-2.889 2.574-1.154.03-2.217-.628-2.71-1.68-.172-.392-.624-.573-1.016-.407-.392.167-.58.618-.424 1.017.604 1.383 1.872 2.354 3.356 2.57v1.135c-.002.21.08.412.225.56.147.15.346.233.554.233z" transform="translate(-127 -607) translate(31 598) translate(96 9)"/>
                </g>
            </g>
        </g>
    </g>
</svg>
