<svg xmlns="http://www.w3.org/2000/svg" width="35" height="37" viewBox="0 0 35 37">
    <g fill="none" fill-rule="evenodd" stroke-linecap="round" stroke-linejoin="round" opacity=".07">
        <g stroke="#000">
            <g>
                <g>
                    <g>
                        <path d="M17.666 36.11c1.198-4.859 2.048-9.797 2.544-14.778M14.162 30.582c-.368 1.83-.751 3.515-1.078 4.851M20.4 17.632c0-.122.01-.25.01-.37 0-1.277-1.03-2.312-2.302-2.312s-2.303 1.035-2.303 2.312c-.06 3.227-.377 6.444-.948 9.62M33.239 28.475c.609-3.738.938-7.517.985-11.305.001-4.105-1.557-8.055-4.358-11.045M2.312 13.932c-.216 1.066-.324 2.15-.324 3.238-.082 2.739-.386 5.467-.909 8.156M27.06 3.711C23.17 1.096 18.337.312 13.823 1.565 9.308 2.817 5.562 5.98 3.56 10.232M10.474 25.032c-.499 3.197-1.166 6.29-1.715 8.6" transform="translate(-294 -754) translate(31 598) translate(160 147) translate(103 9)"/>
                        <path d="M21.49 11.157c-1.029-.598-2.195-.917-3.384-.925-3.815 0-6.908 3.106-6.908 6.938-.009 1.39-.088 2.78-.236 4.162M22.49 35.598c1.474-6.039 2.32-12.214 2.524-18.428-.007-1.194-.325-2.366-.921-3.399M9.172 9.886c-1.67 2.057-2.581 4.63-2.58 7.284-.182 4.514-.803 9-1.852 13.392" transform="translate(-294 -754) translate(31 598) translate(160 147) translate(103 9)"/>
                        <path d="M29.452 21.332c.106-1.411.167-2.81.167-4.162.003-4.22-2.285-8.104-5.968-10.134-3.682-2.03-8.174-1.88-11.716.388M27.663 33.504c.527-2.59 1.039-5.5 1.41-8.472" transform="translate(-294 -754) translate(31 598) translate(160 147) translate(103 9)"/>
                    </g>
                </g>
            </g>
        </g>
    </g>
</svg>
