<svg xmlns="http://www.w3.org/2000/svg" width="772" height="772" viewBox="0 0 772 772">
    <g fill="none" fill-rule="evenodd" opacity=".022">
        <g fill-rule="nonzero">
            <g>
                <g transform="translate(414 139) translate(-414 -139) translate(65.24 43.493)">
                    <circle cx="331.634" cy="331.634" r="318.368" fill="#40C4FF"/>
                    <path fill="#263238" d="M331.634 656.635c-179.493 0-325.001-145.508-325.001-325.001 0-179.493 145.508-325.001 325-325.001 179.494 0 325.002 145.508 325.002 325-.205 179.41-145.593 324.797-325.001 325.002zm0-636.737c-172.167 0-311.736 139.569-311.736 311.736S159.467 643.37 331.634 643.37 643.37 503.8 643.37 331.634c-.198-172.085-139.651-311.539-311.736-311.736z"/>
                </g>
                <g fill="#263238">
                    <path d="M650.002 24.465H13.265c-3.663 0-6.632-3.651-6.632-8.155s2.97-8.155 6.632-8.155h636.737c3.663 0 6.633 3.651 6.633 8.155s-2.97 8.155-6.633 8.155z" transform="translate(414 139) translate(-414 -139) translate(65.24 358.817)"/>
                </g>
                <g fill="#263238">
                    <path d="M168.535 656.635c-89.362 0-162.053-145.786-162.053-325.001 0-179.215 72.69-325.001 162.053-325.001s162.053 145.786 162.053 325c0 179.216-72.69 325.002-162.053 325.002zm0-636.737c-82.206 0-149.089 139.843-149.089 311.736 0 171.892 66.883 311.736 149.09 311.736 82.206 0 149.088-139.844 149.088-311.736 0-171.893-66.882-311.736-149.089-311.736z" transform="translate(414 139) translate(-414 -139) translate(228.338 43.493)"/>
                </g>
                <g fill="#263238">
                    <path d="M244.648 178.243C154.916 178.161 69.45 138.961 9.58 70.426c-1.304-1.494-1.875-3.515-1.552-5.492.324-1.978 1.505-3.698 3.213-4.675C70.819 26.156 155.802 6.602 244.648 6.602s173.829 19.554 233.407 53.644c1.707.977 2.89 2.697 3.212 4.674.323 1.978-.247 3.999-1.551 5.493-59.866 68.544-145.333 107.75-235.068 107.83zM24.709 67.8c57.141 62.065 136.7 97.24 219.939 97.24 83.238 0 162.798-35.175 219.938-97.24-57.273-30.58-136.81-47.994-219.938-47.994-83.129 0-162.665 17.415-219.939 47.994z" transform="translate(414 139) translate(-414 -139) translate(141.352 532.789)"/>
                </g>
                <g fill="#263238">
                    <path d="M244.648 178.243c-88.846 0-173.829-19.554-233.407-53.644-1.703-.978-2.882-2.695-3.205-4.668-.323-1.974.245-3.992 1.544-5.485C69.397 45.832 154.895 6.61 244.648 6.61c89.752 0 175.251 39.222 235.068 107.836 1.299 1.493 1.866 3.51 1.543 5.485-.322 1.973-1.501 3.69-3.204 4.668-59.578 34.09-144.561 53.644-233.407 53.644zM24.709 117.047c57.274 30.578 136.81 47.993 219.939 47.993 83.129 0 162.665-17.415 219.938-47.993-57.14-62.065-136.7-97.24-219.938-97.24-83.239 0-162.798 35.175-219.939 97.24z" transform="translate(414 139) translate(-414 -139) translate(141.352 54.366)"/>
                </g>
                <g fill="#263238">
                    <path d="M16.31 656.635c-4.504 0-8.155-2.97-8.155-6.633V13.265c0-3.663 3.651-6.632 8.155-6.632s8.155 2.97 8.155 6.632v636.737c0 3.663-3.651 6.633-8.155 6.633z" transform="translate(414 139) translate(-414 -139) translate(380.563 43.493)"/>
                </g>
                <g fill="#263238">
                    <path d="M13.048 384.913c-3.603 0-6.524-2.921-6.524-6.524.23-205.28 166.585-371.635 371.865-371.865 3.603 0 6.524 2.92 6.524 6.524 0 3.603-2.921 6.524-6.524 6.524-198.077.223-358.594 160.74-358.817 358.817 0 3.603-2.921 6.524-6.524 6.524z" transform="translate(414 139) translate(-414 -139)"/>
                </g>
                <g fill="#263238">
                    <path d="M21.746 24.465H10.873c-3.002 0-5.436-3.651-5.436-8.155s2.434-8.155 5.436-8.155h10.873c3.003 0 5.437 3.651 5.437 8.155s-2.434 8.155-5.437 8.155z" transform="translate(414 139) translate(-414 -139) translate(391.437)"/>
                </g>
                <g fill="#263238">
                    <path d="M13.048 384.913c-3.603 0-6.524-2.921-6.524-6.524s2.92-6.524 6.524-6.524c198.077-.223 358.594-160.74 358.817-358.817 0-3.603 2.92-6.524 6.524-6.524 3.603 0 6.524 2.92 6.524 6.524-.23 205.28-166.585 371.635-371.865 371.865z" transform="translate(414 139) translate(-414 -139) translate(380.563 380.563)"/>
                </g>
                <g fill="#263238">
                    <path d="M21.746 24.465H10.873c-3.002 0-5.436-3.651-5.436-8.155s2.434-8.155 5.436-8.155h10.873c3.003 0 5.437 3.651 5.437 8.155s-2.434 8.155-5.437 8.155z" transform="translate(414 139) translate(-414 -139) translate(347.944 739.38)"/>
                </g>
                <g fill="#263238">
                    <path d="M72.488 24.465h-57.99c-4.004 0-7.25-3.651-7.25-8.155s3.246-8.155 7.25-8.155h57.99c4.004 0 7.25 3.651 7.25 8.155s-3.246 8.155-7.25 8.155z" transform="translate(414 139) translate(-414 -139) translate(587.155 43.493)"/>
                </g>
                <g fill="#263238">
                    <path d="M16.31 79.737c-4.504 0-8.155-3.245-8.155-7.249v-57.99c0-4.004 3.651-7.25 8.155-7.25s8.155 3.246 8.155 7.25v57.99c0 4.004-3.651 7.25-8.155 7.25z" transform="translate(414 139) translate(-414 -139) translate(619.775)"/>
                </g>
                <g fill="#263238">
                    <path d="M72.488 10.873h-57.99c-4.004 0-7.25-2.434-7.25-5.436C7.249 2.434 10.495 0 14.499 0h57.99c4.004 0 7.25 2.434 7.25 5.437 0 3.002-3.246 5.436-7.25 5.436z" transform="translate(414 139) translate(-414 -139) translate(685.014 130.479)"/>
                </g>
                <g fill="#263238">
                    <path d="M16.31 65.24c-4.504 0-8.155-2.921-8.155-6.525V6.524C8.155 2.92 11.806 0 16.31 0s8.155 2.92 8.155 6.524v52.191c0 3.604-3.651 6.524-8.155 6.524z" transform="translate(414 139) translate(-414 -139) translate(695.887 97.86)"/>
                </g>
            </g>
        </g>
    </g>
</svg>
